Fly_normalized_Motion_pl15
version=1
nRows=10
nColumns=43
inDegrees=yes
endheader
time		pelvis_tilt		pelvis_list		pelvis_rotation		pelvis_tx		pelvis_ty		pelvis_tz		hip_flexion_r		hip_adduction_r		hip_rotation_r		knee_angle_r		ankle_angle_r		subtalar_angle_r		mtp_angle_r		hip_flexion_l		hip_adduction_l		hip_rotation_l		knee_angle_l		ankle_angle_l		subtalar_angle_l		mtp_angle_l		lumbar_extension		lumbar_bending		lumbar_rotation		neck_flexion		neck_lateral_bending		neck_rotation		arm_flex_r		arm_add_r		arm_rot_r		elbow_flex_r		pro_sup_r		wrist_flex_r		wrist_dev_r		hand_finger_flex_r		arm_flex_l		arm_add_l		arm_rot_l		elbow_flex_l		pro_sup_l		wrist_flex_l		wrist_dev_l		hand_finger_flex_l		
1.610833		0.115702		-8.399565		84.433620		0.033603		1.765681		1.286639		56.498679		2.657651		2.330981		-106.235446		-11.563872		-13.264038		-4.712213		71.349225		-6.659351		3.060334		-95.039294		-5.960078		-7.809672		8.164083		-45.105482		-1.658364		6.800815		25.185872		3.227433		-4.551984		92.060973		-22.001911		16.710781		57.980749		123.738917		6.570251		6.100595		-29.631912		80.044254		-23.177808		22.860871		71.943437		116.807513		-18.998053		1.809398		-8.896680		
1.614571		0.349825		-8.004432		84.534185		0.032894		1.762347		1.279311		56.760801		2.709286		1.769942		-105.621167		-11.200261		-12.938920		-5.000711		71.128360		-6.652494		3.321931		-94.020138		-6.354774		-7.758877		8.247788		-45.593438		-1.385524		6.928963		25.161516		3.131389		-4.559325		90.417644		-22.600053		16.081505		57.820816		123.679379		6.667387		6.410249		-29.912388		78.062504		-23.878107		22.674477		72.746369		117.064480		-19.389508		1.539788		-8.853786		
1.618308		0.478412		-7.593240		84.541289		0.032438		1.758692		1.272008		57.053146		2.775592		1.338480		-105.033177		-10.982274		-12.648140		-5.102440		70.853973		-6.711732		3.435826		-92.995353		-6.733725		-7.677413		8.283776		-46.044831		-1.285059		7.061734		24.876167		3.082621		-4.610540		88.774132		-23.350211		15.651129		57.614580		123.653288		6.812863		6.631949		-30.056449		76.133292		-24.605087		22.634060		73.423748		117.288132		-19.639025		1.267934		-8.834182		
1.622045		0.775250		-7.323593		84.632411		0.031769		1.754856		1.264572		57.386973		2.872625		0.782442		-104.354149		-10.433181		-11.789892		-5.048576		70.746597		-6.770909		3.759056		-91.983625		-7.223160		-7.688790		8.553667		-46.384594		-0.922661		7.229987		24.861420		2.834537		-4.493567		87.017591		-23.670169		14.487874		57.386751		123.780988		7.515350		7.145840		-30.413145		73.830229		-25.288987		22.045771		74.172029		118.264191		-19.870601		0.820226		-8.646700		
1.625783		0.877833		-6.972233		84.552970		0.031375		1.750941		1.257199		57.710048		2.978334		0.441491		-103.704280		-10.212679		-11.352693		-4.924621		70.458962		-6.879366		3.848917		-90.929799		-7.701214		-7.593318		8.643297		-46.790578		-0.896350		7.404941		24.780833		2.811925		-4.572057		85.304550		-24.406829		13.903513		57.151956		123.769587		7.826737		7.355024		-30.606733		71.693138		-25.954950		21.760874		74.838740		118.732910		-20.197742		0.574745		-8.636075		
1.629520		1.041716		-6.697667		84.463418		0.030882		1.746851		1.249701		58.037596		3.110300		0.099487		-102.985100		-9.897602		-10.550465		-4.480501		70.244944		-7.038688		3.978685		-89.881916		-8.251758		-7.562853		8.799019		-47.148678		-0.783197		7.572232		24.911374		2.692550		-4.540147		83.526810		-24.986100		13.102989		56.963912		123.541146		8.300081		7.662548		-30.872155		69.324397		-26.685885		21.243742		75.612910		119.593321		-20.732089		0.345272		-8.640105		
1.633258		1.133977		-6.365119		84.409572		0.030400		1.742427		1.242151		58.315920		3.161408		-0.209545		-102.313437		-9.790362		-9.921543		-4.004142		69.963991		-7.142783		4.013977		-88.874715		-8.710166		-7.523069		8.889241		-47.489203		-0.721721		7.653780		24.633234		2.607193		-4.493382		81.777338		-25.828387		12.881803		56.703262		123.249827		8.653547		7.886685		-31.048215		67.119060		-27.576381		21.122610		76.246216		120.228555		-21.118787		0.248252		-8.599359		
1.636995		1.243852		-6.077300		84.353181		0.029821		1.737910		1.234487		58.589965		3.199527		-0.510866		-101.586768		-9.671942		-9.119515		-3.229356		69.699998		-7.257208		4.062357		-87.843975		-9.239650		-7.512458		9.027017		-47.809680		-0.629063		7.711464		24.558376		2.538617		-4.406180		80.005218		-26.649842		12.692480		56.441111		122.736292		9.016547		8.132806		-31.329406		64.745769		-28.454272		20.820824		76.971361		121.022910		-21.662639		0.232138		-8.516101		
1.640732		1.326581		-5.802405		84.236135		0.029311		1.733426		1.226770		58.831036		3.260539		-0.757804		-100.792708		-9.652502		-8.381982		-2.586126		69.380461		-7.422113		4.035995		-86.755072		-9.763245		-7.492085		9.051809		-48.164399		-0.624658		7.778358		24.778393		2.561646		-4.353231		78.170543		-27.541246		12.518019		56.220898		121.974620		9.105975		8.213509		-31.493135		62.290761		-29.294113		20.439668		77.737437		121.343432		-22.319540		0.109164		-8.508445		
1.644470		1.360948		-5.481445		84.175074		0.028883		1.728542		1.218932		59.027181		3.253653		-0.993683		-100.054482		-9.729022		-7.817550		-2.073284		69.019265		-7.531031		3.957460		-85.717931		-10.168059		-7.466480		9.055586		-48.449695		-0.634277		7.800342		24.509396		2.587477		-4.309275		76.282564		-28.488678		12.526389		55.870852		121.359669		9.204651		8.327412		-31.585408		59.971621		-30.200688		20.352810		78.249591		121.575456		-22.673205		-0.026643		-8.414277		
